<svg width="14" height="16" viewBox="0 0 14 16" fill="none" xmlns="http://www.w3.org/2000/svg">
<g id="delete">
<path id="Vector" d="M0.899902 3.68884H2.24435H12.9999" stroke="white" stroke-width="1.34444" stroke-linecap="round" stroke-linejoin="round"/>
<path id="Vector_2" d="M11.6555 3.68889V13.1C11.6555 13.4566 11.5138 13.7985 11.2617 14.0507C11.0096 14.3028 10.6676 14.4444 10.3111 14.4444H3.58883C3.23226 14.4444 2.8903 14.3028 2.63816 14.0507C2.38603 13.7985 2.24438 13.4566 2.24438 13.1V3.68889M4.26105 3.68889V2.34444C4.26105 1.98788 4.4027 1.64591 4.65483 1.39378C4.90696 1.14165 5.24893 1 5.6055 1H8.29438C8.65095 1 8.99292 1.14165 9.24505 1.39378C9.49718 1.64591 9.63883 1.98788 9.63883 2.34444V3.68889" stroke="white" stroke-width="1.34444" stroke-linecap="round" stroke-linejoin="round"/>
<path id="Vector_3" d="M5.60547 7.05005V11.0834" stroke="white" stroke-width="1.34444" stroke-linecap="round" stroke-linejoin="round"/>
<path id="Vector_4" d="M8.29443 7.05005V11.0834" stroke="white" stroke-width="1.34444" stroke-linecap="round" stroke-linejoin="round"/>
</g>
</svg>
