<svg width="46" height="45" viewBox="0 0 46 45" fill="none" xmlns="http://www.w3.org/2000/svg">
<g id="file">
<rect width="45.0644" height="44.4206" rx="6.43777" fill="#272B34"/>
<path id="Vector" fill-rule="evenodd" clip-rule="evenodd" d="M20.7849 11.4565C23.3503 8.18116 27.4984 8.18116 30.0638 11.4565C32.6454 14.7525 32.6454 20.1128 30.0638 23.4087L23.1347 32.2552C21.3126 34.5816 18.3698 34.5816 16.5477 32.2552C14.7094 29.9083 14.7094 26.0868 16.5477 23.7398L23.377 15.0206C24.4558 13.6433 26.1935 13.6433 27.2723 15.0206C28.3671 16.4185 28.3671 18.7013 27.2723 20.0992L20.393 28.8821C20.1322 29.2152 19.7183 29.2031 19.4686 28.8552C19.2189 28.5072 19.2279 27.9552 19.4888 27.6221L26.368 18.8392C26.925 18.1281 26.925 16.9917 26.368 16.2806C25.7949 15.5489 24.8544 15.5489 24.2813 16.2806L17.4519 24.9998C16.1516 26.66 16.1516 29.3351 17.4519 30.9953C18.7683 32.676 20.9141 32.676 22.2305 30.9953L29.1596 22.1487C31.2032 19.5396 31.2032 15.3257 29.1596 12.7165C27.0998 10.0867 23.7489 10.0867 21.6891 12.7165L16.106 19.8447C15.8451 20.1777 15.4312 20.1656 15.1815 19.8177C14.9318 19.4698 14.9409 18.9177 15.2017 18.5847L20.7849 11.4565Z" fill="white"/>
</g>
</svg>
