<svg width="20" height="14" viewBox="0 0 20 14" fill="none" xmlns="http://www.w3.org/2000/svg">
<g id="Frame 676">
<path id="Vector" fill-rule="evenodd" clip-rule="evenodd" d="M19.3335 1.66667C19.3335 2.1085 18.9753 2.46667 18.5335 2.46667L1.46683 2.46667C1.025 2.46667 0.66683 2.1085 0.66683 1.66667C0.66683 1.22485 1.025 0.866675 1.46683 0.866675L18.5335 0.866675C18.9753 0.866675 19.3335 1.22485 19.3335 1.66667Z" fill="#F2F6FA"/>
<path id="Vector_2" fill-rule="evenodd" clip-rule="evenodd" d="M19.3335 7.00005C19.3335 7.44188 18.9753 7.80005 18.5335 7.80005L1.46683 7.80005C1.025 7.80005 0.66683 7.44188 0.66683 7.00005C0.66683 6.55822 1.025 6.20005 1.46683 6.20005L18.5335 6.20005C18.9753 6.20005 19.3335 6.55822 19.3335 7.00005Z" fill="#F2F6FA"/>
<path id="Vector_3" fill-rule="evenodd" clip-rule="evenodd" d="M19.3335 12.3333C19.3335 12.7751 18.9753 13.1333 18.5335 13.1333L1.46683 13.1333C1.025 13.1333 0.66683 12.7751 0.66683 12.3333C0.66683 11.8915 1.025 11.5333 1.46683 11.5333L18.5335 11.5333C18.9753 11.5333 19.3335 11.8915 19.3335 12.3333Z" fill="#F2F6FA"/>
</g>
</svg>
