<svg width="36" height="36" viewBox="0 0 36 36" fill="none" xmlns="http://www.w3.org/2000/svg">
<g id="Search">
<path id="Vector" d="M29.1831 3.98433C28.9593 3.90977 28.9593 3.59387 29.1831 3.5193L30.4963 3.08207C30.785 2.98582 31.0472 2.82367 31.2624 2.60847C31.4775 2.39326 31.6395 2.13091 31.7356 1.84221L32.1729 0.529821C32.2475 0.306119 32.5634 0.306119 32.638 0.529821L33.0753 1.84289C33.1715 2.13153 33.3337 2.3938 33.5489 2.60889C33.7641 2.82398 34.0265 2.98598 34.3152 3.08207L35.6278 3.5193C35.6768 3.53538 35.7194 3.56651 35.7497 3.60827C35.7799 3.65002 35.7962 3.70026 35.7962 3.75182C35.7962 3.80337 35.7799 3.85361 35.7497 3.89537C35.7194 3.93712 35.6768 3.96826 35.6278 3.98433L34.3146 4.42157C34.026 4.51774 33.7637 4.67979 33.5486 4.89487C33.3335 5.10996 33.1714 5.37217 33.0753 5.66075L32.638 6.97381C32.6219 7.0228 32.5907 7.06545 32.549 7.0957C32.5072 7.12594 32.457 7.14222 32.4054 7.14222C32.3539 7.14222 32.3036 7.12594 32.2619 7.0957C32.2201 7.06545 32.189 7.0228 32.1729 6.97381L31.7356 5.66075C31.6394 5.37217 31.4773 5.10996 31.2622 4.89487C31.0471 4.67979 30.7849 4.51774 30.4963 4.42157L29.1831 3.98433ZM25.7261 6.60301C25.6968 6.59329 25.6712 6.57456 25.6531 6.54949C25.635 6.52443 25.6253 6.49429 25.6253 6.46336C25.6253 6.43244 25.635 6.4023 25.6531 6.37723C25.6712 6.35217 25.6968 6.33344 25.7261 6.32372L26.5139 6.06138C26.8651 5.9441 27.1404 5.66888 27.2577 5.31774L27.52 4.53003C27.5297 4.50068 27.5485 4.47513 27.5735 4.45702C27.5986 4.43892 27.6288 4.42917 27.6597 4.42917C27.6906 4.42917 27.7208 4.43892 27.7458 4.45702C27.7709 4.47513 27.7896 4.50068 27.7993 4.53003L28.0617 5.31774C28.1194 5.49092 28.2167 5.64828 28.3458 5.77736C28.4749 5.90644 28.6322 6.00368 28.8054 6.06138L29.5932 6.32372C29.6226 6.33344 29.6481 6.35217 29.6663 6.37723C29.6844 6.4023 29.6941 6.43244 29.6941 6.46336C29.6941 6.49429 29.6844 6.52443 29.6663 6.54949C29.6481 6.57456 29.6226 6.59329 29.5932 6.60301L28.8054 6.86535C28.6322 6.92305 28.4749 7.02029 28.3458 7.14937C28.2167 7.27845 28.1194 7.43581 28.0617 7.60899L27.7993 8.3967C27.7896 8.42605 27.7709 8.4516 27.7458 8.46971C27.7208 8.48781 27.6906 8.49756 27.6597 8.49756C27.6288 8.49756 27.5986 8.48781 27.5735 8.46971C27.5485 8.4516 27.5297 8.42605 27.52 8.3967L27.2577 7.60899C27.1999 7.43581 27.1027 7.27845 26.9736 7.14937C26.8445 7.02029 26.6871 6.92305 26.5139 6.86535L25.7261 6.60301ZM25.015 1.81103C24.9957 1.80434 24.9789 1.7918 24.9671 1.77515C24.9552 1.75851 24.9489 1.73859 24.9489 1.71816C24.9489 1.69773 24.9552 1.67781 24.9671 1.66116C24.9789 1.64452 24.9957 1.63198 25.015 1.62529L25.5397 1.45039C25.7743 1.37244 25.958 1.18873 26.036 0.95418L26.2109 0.429495C26.2176 0.410193 26.2301 0.393455 26.2468 0.38161C26.2634 0.369764 26.2833 0.363398 26.3038 0.363398C26.3242 0.363398 26.3441 0.369764 26.3608 0.38161C26.3774 0.393455 26.39 0.410193 26.3966 0.429495L26.5716 0.95418C26.61 1.06977 26.6749 1.1748 26.761 1.26093C26.8472 1.34707 26.9522 1.41194 27.0678 1.45039L27.5926 1.62529C27.6119 1.63198 27.6286 1.64452 27.6405 1.66116C27.6523 1.67781 27.6587 1.69773 27.6587 1.71816C27.6587 1.73859 27.6523 1.75851 27.6405 1.77515C27.6286 1.7918 27.6119 1.80434 27.5926 1.81103L27.0678 1.98592C26.9522 2.02437 26.8472 2.08924 26.761 2.17538C26.6749 2.26152 26.61 2.36655 26.5716 2.48214L26.3966 3.00614C26.39 3.02544 26.3774 3.04218 26.3608 3.05403C26.3441 3.06587 26.3242 3.07224 26.3038 3.07224C26.2833 3.07224 26.2634 3.06587 26.2468 3.05403C26.2301 3.04218 26.2176 3.02544 26.2109 3.00614L26.036 2.48146C25.958 2.24691 25.7743 2.0632 25.5397 1.98524L25.015 1.81103Z" fill="white"/>
<path id="Vector_2" d="M31.5092 31.7527L24.2551 24.2526C26.0016 21.8488 26.9444 18.9228 26.9412 15.9164C26.9412 8.23694 20.8982 1.98914 13.4706 1.98914C6.04295 1.98914 0 8.23694 0 15.9164C0 23.5958 6.04295 29.8436 13.4706 29.8436C16.3785 29.8469 19.2085 28.8721 21.5335 27.0664L28.7877 34.5665C29.1549 34.9059 29.6338 35.087 30.1262 35.0728C30.6185 35.0585 31.0869 34.85 31.4352 34.4899C31.7834 34.1298 31.9852 33.6455 31.9989 33.1365C32.0127 32.6275 31.8375 32.1323 31.5092 31.7527ZM3.84874 15.9164C3.84874 13.9488 4.41305 12.0255 5.47031 10.3895C6.52758 8.75359 8.0303 7.47853 9.78847 6.72559C11.5466 5.97265 13.4813 5.77564 15.3477 6.15949C17.2142 6.54334 18.9286 7.49079 20.2743 8.88205C21.6199 10.2733 22.5363 12.0459 22.9076 13.9756C23.2788 15.9053 23.0883 17.9055 22.36 19.7233C21.6318 21.5411 20.3985 23.0947 18.8162 24.1878C17.2339 25.2809 15.3736 25.8644 13.4706 25.8644C10.9197 25.8612 8.47408 24.8121 6.67029 22.9472C4.86651 21.0822 3.8518 18.5538 3.84874 15.9164Z" fill="white"/>
</g>
</svg>
