<svg width="46" height="46" viewBox="0 0 46 46" fill="none" xmlns="http://www.w3.org/2000/svg">
<g id="send">
<rect x="0.935547" y="0.651611" width="45.0644" height="44.4206" rx="6.43777" fill="#272B34"/>
<path id="Vector" d="M22.0787 22.8629L16.6968 22.8629M33.9698 22.252C34.0843 22.3078 34.1808 22.3946 34.2483 22.5026C34.3157 22.6106 34.3515 22.7354 34.3514 22.8627C34.3513 22.99 34.3154 23.1148 34.2477 23.2227C34.1801 23.3306 34.0835 23.4172 33.9689 23.4728L13.4696 33.3449C13.347 33.4039 13.2095 33.4246 13.075 33.4045C12.9405 33.3844 12.8151 33.3244 12.7151 33.2321C12.6151 33.1399 12.5452 33.0197 12.5143 32.8873C12.4835 32.7548 12.4931 32.6161 12.5421 32.4892L16.1506 23.106C16.2108 22.9495 16.2108 22.7763 16.1506 22.6198L12.543 13.2357C12.4945 13.1089 12.4851 12.9705 12.516 12.8384C12.547 12.7062 12.6169 12.5864 12.7166 12.4943C12.8164 12.4023 12.9415 12.3423 13.0757 12.3221C13.2099 12.3019 13.3471 12.3223 13.4696 12.3809L33.9698 22.252Z" stroke="white" stroke-width="2.16947" stroke-linecap="round" stroke-linejoin="round"/>
</g>
</svg>
